<svg width="50" height="63" viewBox="0 0 50 63" fill="none" xmlns="http://www.w3.org/2000/svg">
<path id="Vector" d="M24.1086 0.0159073C11.6577 0.451604 1.31398 10.1395 0.118992 22.5056C-0.125145 24.9788 0.016198 27.3751 0.453074 29.6689C0.453074 29.6689 0.491622 29.938 0.620115 30.4506C1.00559 32.1678 1.58381 33.8337 2.30337 35.3971C4.80899 41.3174 10.604 51.2231 23.6075 62.0002C24.4042 62.6666 25.5735 62.6666 26.383 62.0002C39.3865 51.236 45.1815 41.3302 47.7 35.3843C48.4324 33.8209 48.9978 32.1678 49.3832 30.4378C49.4989 29.938 49.5503 29.6561 49.5503 29.6561C49.8458 28.1184 50 26.5422 50 24.9275C50 10.8571 38.32 -0.483863 24.1086 0.0159073ZM24.9953 37.3321C18.2879 37.3321 12.8527 31.9115 12.8527 25.2223C12.8527 18.533 18.2879 13.1125 24.9953 13.1125C31.7026 13.1125 37.1378 18.533 37.1378 25.2223C37.1378 31.9115 31.7026 37.3321 24.9953 37.3321Z" fill="#23994B"/>
</svg>
